<svg width="24" height="24" viewBox="0 0 24 24" fill="none" xmlns="http://www.w3.org/2000/svg">
  <path d="M5 7C5 5.89543 5.89543 5 7 5H17C18.1046 5 19 5.89543 19 7V7C19 8.10457 18.1046 9 17 9H7C5.89543 9 5 8.10457 5 7V7Z" stroke="#4F46E5" stroke-width="2"/>
  <path d="M5 17C5 15.8954 5.89543 15 7 15H17C18.1046 15 19 15.8954 19 17V17C19 18.1046 18.1046 19 17 19H7C5.89543 19 5 18.1046 5 17V17Z" stroke="#4F46E5" stroke-width="2"/>
  <path d="M9 9V15" stroke="#4F46E5" stroke-width="2"/>
  <path d="M15 9V15" stroke="#4F46E5" stroke-width="2"/>
</svg> 